<svg width="70" height="70" viewBox="0 0 70 70" fill="none" xmlns="http://www.w3.org/2000/svg">
<path d="M24.4999 49.5833L34.9999 39.0833L45.4999 49.5833L49.5833 45.5L39.0833 35L49.5833 24.5L45.4999 20.4166L34.9999 30.9166L24.4999 20.4166L20.4166 24.5L30.9166 35L20.4166 45.5L24.4999 49.5833ZM34.9999 64.1666C30.9652 64.1666 27.1735 63.4005 23.6249 61.8683C20.0763 60.3361 16.9895 58.2585 14.3645 55.6354C11.7395 53.0123 9.66187 49.9255 8.13159 46.375C6.60131 42.8244 5.8352 39.0328 5.83326 35C5.83131 30.9672 6.59742 27.1755 8.13159 23.625C9.66576 20.0744 11.7434 16.9876 14.3645 14.3646C16.9856 11.7415 20.0724 9.66387 23.6249 8.13165C27.1774 6.59942 30.9691 5.83331 34.9999 5.83331C39.0308 5.83331 42.8224 6.59942 46.3749 8.13165C49.9274 9.66387 53.0142 11.7415 55.6353 14.3646C58.2565 16.9876 60.3351 20.0744 61.8712 23.625C63.4073 27.1755 64.1724 30.9672 64.1666 35C64.1608 39.0328 63.3946 42.8244 61.8683 46.375C60.3419 49.9255 58.2642 53.0123 55.6353 55.6354C53.0065 58.2585 49.9196 60.3371 46.3749 61.8712C42.8302 63.4054 39.0385 64.1705 34.9999 64.1666Z" fill="#C61515"/>
</svg>
