<svg width="50" height="50" viewBox="0 0 50 50" fill="none" xmlns="http://www.w3.org/2000/svg">
<path d="M41.667 8.33341H35.0628L31.2503 4.16675H18.7503L14.9378 8.33341H8.33366C7.22859 8.33341 6.16878 8.7724 5.38738 9.5538C4.60598 10.3352 4.16699 11.395 4.16699 12.5001V37.5001C4.16699 38.6051 4.60598 39.665 5.38738 40.4464C6.16878 41.2278 7.22859 41.6667 8.33366 41.6667H41.667C42.7721 41.6667 43.8319 41.2278 44.6133 40.4464C45.3947 39.665 45.8337 38.6051 45.8337 37.5001V12.5001C45.8337 11.395 45.3947 10.3352 44.6133 9.5538C43.8319 8.7724 42.7721 8.33341 41.667 8.33341ZM41.667 37.5001H8.33366V12.5001H16.7712L20.5837 8.33341H29.417L33.2295 12.5001H41.667V37.5001ZM25.0003 14.5834C22.2377 14.5834 19.5881 15.6809 17.6346 17.6344C15.6811 19.5879 14.5837 22.2374 14.5837 25.0001C14.5837 27.7628 15.6811 30.4123 17.6346 32.3658C19.5881 34.3193 22.2377 35.4167 25.0003 35.4167C27.763 35.4167 30.4125 34.3193 32.366 32.3658C34.3195 30.4123 35.417 27.7628 35.417 25.0001C35.417 22.2374 34.3195 19.5879 32.366 17.6344C30.4125 15.6809 27.763 14.5834 25.0003 14.5834ZM25.0003 31.2501C23.3427 31.2501 21.753 30.5916 20.5809 29.4195C19.4088 28.2474 18.7503 26.6577 18.7503 25.0001C18.7503 23.3425 19.4088 21.7528 20.5809 20.5807C21.753 19.4086 23.3427 18.7501 25.0003 18.7501C26.6579 18.7501 28.2476 19.4086 29.4197 20.5807C30.5918 21.7528 31.2503 23.3425 31.2503 25.0001C31.2503 26.6577 30.5918 28.2474 29.4197 29.4195C28.2476 30.5916 26.6579 31.2501 25.0003 31.2501Z" fill="black"/>
</svg>
