<svg width="48" height="57" viewBox="0 0 48 57" fill="none" xmlns="http://www.w3.org/2000/svg">
<path d="M24 9.5C26.1217 9.5 28.1566 10.5009 29.6569 12.2825C31.1571 14.0641 32 16.4804 32 19C32 21.5196 31.1571 23.9359 29.6569 25.7175C28.1566 27.4991 26.1217 28.5 24 28.5C21.8783 28.5 19.8434 27.4991 18.3431 25.7175C16.8429 23.9359 16 21.5196 16 19C16 16.4804 16.8429 14.0641 18.3431 12.2825C19.8434 10.5009 21.8783 9.5 24 9.5ZM24 33.25C32.84 33.25 40 37.5012 40 42.75V47.5H8V42.75C8 37.5012 15.16 33.25 24 33.25Z" fill="black"/>
</svg>
