<svg width="59" height="59" viewBox="0 0 59 59" fill="none" xmlns="http://www.w3.org/2000/svg">
<path d="M18.6667 43.75L29.1667 33.25L39.6667 43.75L43.75 39.6667L33.25 29.1667L43.75 18.6667L39.6667 14.5833L29.1667 25.0833L18.6667 14.5833L14.5833 18.6667L25.0833 29.1667L14.5833 39.6667L18.6667 43.75ZM29.1667 58.3333C25.1319 58.3333 21.3403 57.5672 17.7917 56.035C14.2431 54.5028 11.1563 52.4251 8.53125 49.8021C5.90625 47.179 3.82861 44.0922 2.29834 40.5417C0.768059 36.9911 0.00194814 33.1994 3.69198e-06 29.1667C-0.00194075 25.1339 0.764171 21.3422 2.29834 17.7917C3.8325 14.2411 5.91014 11.1543 8.53125 8.53125C11.1524 5.9082 14.2392 3.83056 17.7917 2.29833C21.3442 0.766111 25.1358 0 29.1667 0C33.1975 0 36.9892 0.766111 40.5417 2.29833C44.0942 3.83056 47.181 5.9082 49.8021 8.53125C52.4232 11.1543 54.5018 14.2411 56.0379 17.7917C57.574 21.3422 58.3392 25.1339 58.3333 29.1667C58.3275 33.1994 57.5614 36.9911 56.035 40.5417C54.5086 44.0922 52.431 47.179 49.8021 49.8021C47.1732 52.4251 44.0864 54.5037 40.5417 56.0379C36.9969 57.5721 33.2053 58.3372 29.1667 58.3333Z" fill="#C61515"/>
</svg>
